<?xml version="1.0" standalone="no"?>
<!DOCTYPE svg PUBLIC "-//W3C//DTD SVG 20010904//EN"
 "http://www.w3.org/TR/2001/REC-SVG-20010904/DTD/svg10.dtd">
<svg version="1.0" xmlns="http://www.w3.org/2000/svg"
 width="24.000000pt" height="24.000000pt" viewBox="0 0 24.000000 24.000000"
 preserveAspectRatio="xMidYMid meet">

<g transform="translate(0.000000,24.000000) scale(0.100000,-0.100000)"
fill="#000000" stroke="none">
<path d="M40 192 c0 -14 149 -156 157 -149 4 4 -26 41 -67 82 -70 71 -90 85
-90 67z"/>
<path d="M100 180 c0 -5 8 -10 18 -10 22 0 52 -30 52 -52 0 -9 6 -21 13 -27
11 -8 18 -6 32 9 17 19 17 21 -1 41 -31 36 -114 64 -114 39z"/>
<path d="M25 140 c-17 -19 -17 -21 1 -41 31 -36 114 -64 114 -39 0 6 -8 10
-18 10 -22 0 -52 30 -52 52 0 9 -6 21 -13 27 -11 8 -18 6 -32 -9z"/>
</g>
</svg>
